<mxfile host="app.diagrams.net" modified="2024-08-05T16:52:30.434Z" agent="Mozilla/5.0 (Windows NT 10.0; Win64; x64) AppleWebKit/537.36 (KHTML, like Gecko) Chrome/127.0.0.0 Safari/537.36" etag="oa9WxJuPmgV65tkM0Fa6" version="24.3.0" type="onedrive">
  <diagram name="Página-1" id="WYCO-_fLHaADc7d4i946">
    <mxGraphModel grid="1" page="1" gridSize="10" guides="1" tooltips="1" connect="1" arrows="1" fold="1" pageScale="1" pageWidth="850" pageHeight="1100" math="0" shadow="0">
      <root>
        <mxCell id="0" />
        <mxCell id="1" parent="0" />
        <mxCell id="FGWVI9_t93SK-zdt_sJv-2" value="" style="rounded=0;whiteSpace=wrap;html=1;" vertex="1" parent="1">
          <mxGeometry x="-10" y="140" width="560" height="420" as="geometry" />
        </mxCell>
        <mxCell id="FGWVI9_t93SK-zdt_sJv-7" value="Energía" style="text;html=1;align=center;verticalAlign=middle;whiteSpace=wrap;rounded=0;" vertex="1" parent="1">
          <mxGeometry x="-180" y="170" width="60" height="30" as="geometry" />
        </mxCell>
        <mxCell id="FGWVI9_t93SK-zdt_sJv-8" value="Señal (botones)" style="text;html=1;align=center;verticalAlign=middle;whiteSpace=wrap;rounded=0;" vertex="1" parent="1">
          <mxGeometry x="-185" y="275" width="60" height="30" as="geometry" />
        </mxCell>
        <mxCell id="FGWVI9_t93SK-zdt_sJv-9" style="edgeStyle=orthogonalEdgeStyle;rounded=0;orthogonalLoop=1;jettySize=auto;html=1;entryX=-0.002;entryY=0.107;entryDx=0;entryDy=0;entryPerimeter=0;" edge="1" parent="1" source="FGWVI9_t93SK-zdt_sJv-7" target="FGWVI9_t93SK-zdt_sJv-2">
          <mxGeometry relative="1" as="geometry" />
        </mxCell>
        <mxCell id="FGWVI9_t93SK-zdt_sJv-10" style="edgeStyle=orthogonalEdgeStyle;rounded=0;orthogonalLoop=1;jettySize=auto;html=1;entryX=0.004;entryY=0.335;entryDx=0;entryDy=0;entryPerimeter=0;" edge="1" parent="1" source="FGWVI9_t93SK-zdt_sJv-8">
          <mxGeometry relative="1" as="geometry">
            <mxPoint x="-12.760000000000218" y="290.70000000000005" as="targetPoint" />
            <Array as="points">
              <mxPoint x="-100" y="291" />
              <mxPoint x="-100" y="291" />
            </Array>
          </mxGeometry>
        </mxCell>
        <mxCell id="FGWVI9_t93SK-zdt_sJv-12" style="edgeStyle=orthogonalEdgeStyle;rounded=0;orthogonalLoop=1;jettySize=auto;html=1;" edge="1" parent="1">
          <mxGeometry relative="1" as="geometry">
            <mxPoint x="-125" y="385" as="sourcePoint" />
            <mxPoint x="-15" y="385" as="targetPoint" />
          </mxGeometry>
        </mxCell>
        <mxCell id="FGWVI9_t93SK-zdt_sJv-13" value="pulsos (golpes)" style="text;html=1;align=center;verticalAlign=middle;whiteSpace=wrap;rounded=0;" vertex="1" parent="1">
          <mxGeometry x="-185" y="370" width="60" height="30" as="geometry" />
        </mxCell>
        <mxCell id="FGWVI9_t93SK-zdt_sJv-14" value="comunicación&lt;br&gt;(bluetooth)" style="text;html=1;align=center;verticalAlign=middle;whiteSpace=wrap;rounded=0;" vertex="1" parent="1">
          <mxGeometry x="-185" y="470" width="60" height="30" as="geometry" />
        </mxCell>
        <mxCell id="FGWVI9_t93SK-zdt_sJv-16" style="edgeStyle=orthogonalEdgeStyle;rounded=0;orthogonalLoop=1;jettySize=auto;html=1;entryX=0.003;entryY=0.583;entryDx=0;entryDy=0;entryPerimeter=0;" edge="1" parent="1">
          <mxGeometry relative="1" as="geometry">
            <mxPoint x="-111.68" y="484.64" as="sourcePoint" />
            <mxPoint x="-10.000000000000163" y="484.5" as="targetPoint" />
          </mxGeometry>
        </mxCell>
        <mxCell id="FGWVI9_t93SK-zdt_sJv-21" value="" style="endArrow=classic;html=1;rounded=0;" edge="1" parent="1">
          <mxGeometry width="50" height="50" relative="1" as="geometry">
            <mxPoint x="550" y="330" as="sourcePoint" />
            <mxPoint x="630" y="330" as="targetPoint" />
          </mxGeometry>
        </mxCell>
        <mxCell id="FGWVI9_t93SK-zdt_sJv-22" value="Sistema de boxeo" style="text;html=1;align=center;verticalAlign=middle;whiteSpace=wrap;rounded=0;" vertex="1" parent="1">
          <mxGeometry x="640" y="310" width="60" height="30" as="geometry" />
        </mxCell>
        <mxCell id="FGWVI9_t93SK-zdt_sJv-90" style="edgeStyle=orthogonalEdgeStyle;rounded=0;orthogonalLoop=1;jettySize=auto;html=1;exitX=1;exitY=0.5;exitDx=0;exitDy=0;entryX=0;entryY=0.5;entryDx=0;entryDy=0;" edge="1" parent="1" source="FGWVI9_t93SK-zdt_sJv-23" target="FGWVI9_t93SK-zdt_sJv-26">
          <mxGeometry relative="1" as="geometry" />
        </mxCell>
        <mxCell id="FGWVI9_t93SK-zdt_sJv-23" value="" style="rounded=0;whiteSpace=wrap;html=1;" vertex="1" parent="1">
          <mxGeometry x="70" y="155" width="120" height="60" as="geometry" />
        </mxCell>
        <mxCell id="FGWVI9_t93SK-zdt_sJv-24" value="" style="endArrow=classic;html=1;rounded=0;" edge="1" parent="1" target="FGWVI9_t93SK-zdt_sJv-23">
          <mxGeometry width="50" height="50" relative="1" as="geometry">
            <mxPoint x="-20" y="185" as="sourcePoint" />
            <mxPoint x="30" y="140" as="targetPoint" />
          </mxGeometry>
        </mxCell>
        <mxCell id="FGWVI9_t93SK-zdt_sJv-25" value="Acepar energía externa" style="text;html=1;align=center;verticalAlign=middle;whiteSpace=wrap;rounded=0;" vertex="1" parent="1">
          <mxGeometry x="90" y="170" width="80" height="30" as="geometry" />
        </mxCell>
        <mxCell id="FGWVI9_t93SK-zdt_sJv-40" value="" style="endArrow=classic;html=1;rounded=0;exitX=0.003;exitY=0.774;exitDx=0;exitDy=0;exitPerimeter=0;" edge="1" parent="1" target="FGWVI9_t93SK-zdt_sJv-39">
          <mxGeometry width="50" height="50" relative="1" as="geometry">
            <mxPoint x="-13.320000000000164" y="485.0799999999999" as="sourcePoint" />
            <mxPoint x="115" y="440" as="targetPoint" />
          </mxGeometry>
        </mxCell>
        <mxCell id="FGWVI9_t93SK-zdt_sJv-43" value="" style="endArrow=classic;html=1;rounded=0;" edge="1" parent="1" target="FGWVI9_t93SK-zdt_sJv-42">
          <mxGeometry width="50" height="50" relative="1" as="geometry">
            <mxPoint x="235" y="485" as="sourcePoint" />
            <mxPoint x="285" y="440" as="targetPoint" />
          </mxGeometry>
        </mxCell>
        <mxCell id="FGWVI9_t93SK-zdt_sJv-46" value="" style="group" connectable="0" vertex="1" parent="1">
          <mxGeometry x="230" y="455" width="120" height="60" as="geometry" />
        </mxCell>
        <mxCell id="FGWVI9_t93SK-zdt_sJv-42" value="" style="rounded=0;whiteSpace=wrap;html=1;" vertex="1" parent="FGWVI9_t93SK-zdt_sJv-46">
          <mxGeometry width="120" height="60" as="geometry" />
        </mxCell>
        <mxCell id="FGWVI9_t93SK-zdt_sJv-44" value="Transferir datos" style="text;html=1;align=center;verticalAlign=middle;whiteSpace=wrap;rounded=0;" vertex="1" parent="FGWVI9_t93SK-zdt_sJv-46">
          <mxGeometry x="20" y="15" width="80" height="30" as="geometry" />
        </mxCell>
        <mxCell id="FGWVI9_t93SK-zdt_sJv-48" value="" style="group" connectable="0" vertex="1" parent="1">
          <mxGeometry x="70" y="455" width="120" height="60" as="geometry" />
        </mxCell>
        <mxCell id="FGWVI9_t93SK-zdt_sJv-92" style="edgeStyle=orthogonalEdgeStyle;rounded=0;orthogonalLoop=1;jettySize=auto;html=1;exitX=1;exitY=0.5;exitDx=0;exitDy=0;" edge="1" parent="FGWVI9_t93SK-zdt_sJv-48" source="FGWVI9_t93SK-zdt_sJv-39">
          <mxGeometry relative="1" as="geometry">
            <mxPoint x="160" y="30" as="targetPoint" />
          </mxGeometry>
        </mxCell>
        <mxCell id="FGWVI9_t93SK-zdt_sJv-39" value="" style="rounded=0;whiteSpace=wrap;html=1;" vertex="1" parent="FGWVI9_t93SK-zdt_sJv-48">
          <mxGeometry width="120" height="60" as="geometry" />
        </mxCell>
        <mxCell id="FGWVI9_t93SK-zdt_sJv-41" value="Conectar dispositivos" style="text;html=1;align=center;verticalAlign=middle;whiteSpace=wrap;rounded=0;" vertex="1" parent="FGWVI9_t93SK-zdt_sJv-48">
          <mxGeometry x="20" y="15" width="80" height="30" as="geometry" />
        </mxCell>
        <mxCell id="FGWVI9_t93SK-zdt_sJv-55" value="" style="group" connectable="0" vertex="1" parent="1">
          <mxGeometry x="240" y="155" width="120" height="60" as="geometry" />
        </mxCell>
        <mxCell id="FGWVI9_t93SK-zdt_sJv-26" value="" style="rounded=0;whiteSpace=wrap;html=1;" vertex="1" parent="FGWVI9_t93SK-zdt_sJv-55">
          <mxGeometry width="120" height="60" as="geometry" />
        </mxCell>
        <mxCell id="FGWVI9_t93SK-zdt_sJv-28" value="Alimentar sistema" style="text;html=1;align=center;verticalAlign=middle;whiteSpace=wrap;rounded=0;" vertex="1" parent="FGWVI9_t93SK-zdt_sJv-55">
          <mxGeometry x="20" y="15" width="80" height="30" as="geometry" />
        </mxCell>
        <mxCell id="FGWVI9_t93SK-zdt_sJv-56" value="" style="group" connectable="0" vertex="1" parent="1">
          <mxGeometry x="230" y="355" width="120" height="60" as="geometry" />
        </mxCell>
        <mxCell id="FGWVI9_t93SK-zdt_sJv-57" value="" style="rounded=0;whiteSpace=wrap;html=1;" vertex="1" parent="FGWVI9_t93SK-zdt_sJv-56">
          <mxGeometry width="120" height="60" as="geometry" />
        </mxCell>
        <mxCell id="FGWVI9_t93SK-zdt_sJv-58" value="Contar pulsos" style="text;html=1;align=center;verticalAlign=middle;whiteSpace=wrap;rounded=0;" vertex="1" parent="FGWVI9_t93SK-zdt_sJv-56">
          <mxGeometry x="20" y="15" width="80" height="30" as="geometry" />
        </mxCell>
        <mxCell id="FGWVI9_t93SK-zdt_sJv-61" value="" style="group" connectable="0" vertex="1" parent="1">
          <mxGeometry x="405" y="300" width="120" height="60" as="geometry" />
        </mxCell>
        <mxCell id="FGWVI9_t93SK-zdt_sJv-62" value="" style="rounded=0;whiteSpace=wrap;html=1;" vertex="1" parent="FGWVI9_t93SK-zdt_sJv-61">
          <mxGeometry width="120" height="60" as="geometry" />
        </mxCell>
        <mxCell id="FGWVI9_t93SK-zdt_sJv-63" value="Ejecutar programa" style="text;html=1;align=center;verticalAlign=middle;whiteSpace=wrap;rounded=0;" vertex="1" parent="FGWVI9_t93SK-zdt_sJv-61">
          <mxGeometry x="20" y="15" width="80" height="30" as="geometry" />
        </mxCell>
        <mxCell id="FGWVI9_t93SK-zdt_sJv-65" value="" style="group" connectable="0" vertex="1" parent="1">
          <mxGeometry x="-30" y="355" width="220" height="60" as="geometry" />
        </mxCell>
        <mxCell id="FGWVI9_t93SK-zdt_sJv-33" value="" style="rounded=0;whiteSpace=wrap;html=1;" vertex="1" parent="FGWVI9_t93SK-zdt_sJv-65">
          <mxGeometry x="100" width="120" height="60" as="geometry" />
        </mxCell>
        <mxCell id="FGWVI9_t93SK-zdt_sJv-96" value="Accionar pulsos" style="text;html=1;align=center;verticalAlign=middle;whiteSpace=wrap;rounded=0;" vertex="1" parent="FGWVI9_t93SK-zdt_sJv-65">
          <mxGeometry x="120" y="15" width="80" height="30" as="geometry" />
        </mxCell>
        <mxCell id="FGWVI9_t93SK-zdt_sJv-66" value="" style="group" connectable="0" vertex="1" parent="1">
          <mxGeometry x="50" y="260" width="140" height="60" as="geometry" />
        </mxCell>
        <mxCell id="FGWVI9_t93SK-zdt_sJv-93" style="edgeStyle=orthogonalEdgeStyle;rounded=0;orthogonalLoop=1;jettySize=auto;html=1;exitX=1;exitY=0.5;exitDx=0;exitDy=0;" edge="1" parent="FGWVI9_t93SK-zdt_sJv-66" source="FGWVI9_t93SK-zdt_sJv-30">
          <mxGeometry relative="1" as="geometry">
            <mxPoint x="180" y="30.172413793103487" as="targetPoint" />
          </mxGeometry>
        </mxCell>
        <mxCell id="FGWVI9_t93SK-zdt_sJv-30" value="" style="rounded=0;whiteSpace=wrap;html=1;" vertex="1" parent="FGWVI9_t93SK-zdt_sJv-66">
          <mxGeometry x="20" width="120" height="60" as="geometry" />
        </mxCell>
        <mxCell id="FGWVI9_t93SK-zdt_sJv-32" value="Leer orden" style="text;html=1;align=center;verticalAlign=middle;whiteSpace=wrap;rounded=0;" vertex="1" parent="FGWVI9_t93SK-zdt_sJv-66">
          <mxGeometry x="40" y="15" width="80" height="30" as="geometry" />
        </mxCell>
        <mxCell id="FGWVI9_t93SK-zdt_sJv-31" value="" style="endArrow=classic;html=1;rounded=0;exitX=0;exitY=0.381;exitDx=0;exitDy=0;exitPerimeter=0;" edge="1" parent="1" target="FGWVI9_t93SK-zdt_sJv-30">
          <mxGeometry width="50" height="50" relative="1" as="geometry">
            <mxPoint x="-10" y="290.02" as="sourcePoint" />
            <mxPoint x="70" y="255" as="targetPoint" />
          </mxGeometry>
        </mxCell>
        <mxCell id="FGWVI9_t93SK-zdt_sJv-34" value="" style="endArrow=classic;html=1;rounded=0;" edge="1" parent="1" target="FGWVI9_t93SK-zdt_sJv-33">
          <mxGeometry width="50" height="50" relative="1" as="geometry">
            <mxPoint x="-10" y="387" as="sourcePoint" />
            <mxPoint x="105" y="340" as="targetPoint" />
          </mxGeometry>
        </mxCell>
        <mxCell id="FGWVI9_t93SK-zdt_sJv-72" style="edgeStyle=orthogonalEdgeStyle;rounded=0;orthogonalLoop=1;jettySize=auto;html=1;exitX=1;exitY=0.5;exitDx=0;exitDy=0;entryX=0.567;entryY=1.008;entryDx=0;entryDy=0;entryPerimeter=0;" edge="1" parent="1" source="FGWVI9_t93SK-zdt_sJv-42" target="FGWVI9_t93SK-zdt_sJv-62">
          <mxGeometry relative="1" as="geometry" />
        </mxCell>
        <mxCell id="FGWVI9_t93SK-zdt_sJv-77" value="" style="endArrow=classic;html=1;rounded=0;exitX=1;exitY=0.5;exitDx=0;exitDy=0;" edge="1" parent="1" source="FGWVI9_t93SK-zdt_sJv-62">
          <mxGeometry width="50" height="50" relative="1" as="geometry">
            <mxPoint x="530" y="330" as="sourcePoint" />
            <mxPoint x="550" y="330" as="targetPoint" />
          </mxGeometry>
        </mxCell>
        <mxCell id="FGWVI9_t93SK-zdt_sJv-84" value="" style="group" connectable="0" vertex="1" parent="1">
          <mxGeometry x="230" y="260" width="120" height="60" as="geometry" />
        </mxCell>
        <mxCell id="FGWVI9_t93SK-zdt_sJv-86" value="" style="rounded=0;whiteSpace=wrap;html=1;" vertex="1" parent="FGWVI9_t93SK-zdt_sJv-84">
          <mxGeometry width="120" height="60" as="geometry" />
        </mxCell>
        <mxCell id="FGWVI9_t93SK-zdt_sJv-87" value="Ejecutar modo" style="text;html=1;align=center;verticalAlign=middle;whiteSpace=wrap;rounded=0;" vertex="1" parent="FGWVI9_t93SK-zdt_sJv-84">
          <mxGeometry x="20" y="15" width="80" height="30" as="geometry" />
        </mxCell>
        <mxCell id="FGWVI9_t93SK-zdt_sJv-91" style="edgeStyle=orthogonalEdgeStyle;rounded=0;orthogonalLoop=1;jettySize=auto;html=1;exitX=1;exitY=0.5;exitDx=0;exitDy=0;entryX=0.537;entryY=-0.017;entryDx=0;entryDy=0;entryPerimeter=0;" edge="1" parent="1" source="FGWVI9_t93SK-zdt_sJv-26" target="FGWVI9_t93SK-zdt_sJv-62">
          <mxGeometry relative="1" as="geometry" />
        </mxCell>
        <mxCell id="FGWVI9_t93SK-zdt_sJv-94" style="edgeStyle=orthogonalEdgeStyle;rounded=0;orthogonalLoop=1;jettySize=auto;html=1;exitX=0.5;exitY=1;exitDx=0;exitDy=0;entryX=0.5;entryY=0;entryDx=0;entryDy=0;" edge="1" parent="1" source="FGWVI9_t93SK-zdt_sJv-86" target="FGWVI9_t93SK-zdt_sJv-33">
          <mxGeometry relative="1" as="geometry">
            <Array as="points">
              <mxPoint x="290" y="340" />
              <mxPoint x="130" y="340" />
            </Array>
          </mxGeometry>
        </mxCell>
        <mxCell id="FGWVI9_t93SK-zdt_sJv-95" style="edgeStyle=orthogonalEdgeStyle;rounded=0;orthogonalLoop=1;jettySize=auto;html=1;exitX=1;exitY=0.5;exitDx=0;exitDy=0;entryX=0;entryY=0.5;entryDx=0;entryDy=0;" edge="1" parent="1" source="FGWVI9_t93SK-zdt_sJv-57" target="FGWVI9_t93SK-zdt_sJv-62">
          <mxGeometry relative="1" as="geometry" />
        </mxCell>
        <mxCell id="FGWVI9_t93SK-zdt_sJv-97" style="edgeStyle=orthogonalEdgeStyle;rounded=0;orthogonalLoop=1;jettySize=auto;html=1;exitX=1;exitY=0.5;exitDx=0;exitDy=0;entryX=0;entryY=0.5;entryDx=0;entryDy=0;" edge="1" parent="1" source="FGWVI9_t93SK-zdt_sJv-33" target="FGWVI9_t93SK-zdt_sJv-57">
          <mxGeometry relative="1" as="geometry" />
        </mxCell>
        <mxCell id="FGWVI9_t93SK-zdt_sJv-98" value="" style="rounded=0;whiteSpace=wrap;html=1;" vertex="1" parent="1">
          <mxGeometry y="680" width="250" height="340" as="geometry" />
        </mxCell>
        <mxCell id="FGWVI9_t93SK-zdt_sJv-99" value="Energía" style="text;html=1;align=center;verticalAlign=middle;whiteSpace=wrap;rounded=0;" vertex="1" parent="1">
          <mxGeometry x="-170" y="685" width="60" height="30" as="geometry" />
        </mxCell>
        <mxCell id="FGWVI9_t93SK-zdt_sJv-100" value="Señal (botones)" style="text;html=1;align=center;verticalAlign=middle;whiteSpace=wrap;rounded=0;" vertex="1" parent="1">
          <mxGeometry x="-175" y="790" width="60" height="30" as="geometry" />
        </mxCell>
        <mxCell id="FGWVI9_t93SK-zdt_sJv-101" style="edgeStyle=orthogonalEdgeStyle;rounded=0;orthogonalLoop=1;jettySize=auto;html=1;entryX=-0.002;entryY=0.107;entryDx=0;entryDy=0;entryPerimeter=0;" edge="1" parent="1" source="FGWVI9_t93SK-zdt_sJv-99">
          <mxGeometry relative="1" as="geometry">
            <mxPoint x="-1" y="700" as="targetPoint" />
          </mxGeometry>
        </mxCell>
        <mxCell id="FGWVI9_t93SK-zdt_sJv-102" style="edgeStyle=orthogonalEdgeStyle;rounded=0;orthogonalLoop=1;jettySize=auto;html=1;entryX=0.004;entryY=0.335;entryDx=0;entryDy=0;entryPerimeter=0;" edge="1" parent="1" source="FGWVI9_t93SK-zdt_sJv-100">
          <mxGeometry relative="1" as="geometry">
            <mxPoint x="-2.7600000000002183" y="805.7" as="targetPoint" />
            <Array as="points">
              <mxPoint x="-90" y="806" />
              <mxPoint x="-90" y="806" />
            </Array>
          </mxGeometry>
        </mxCell>
        <mxCell id="FGWVI9_t93SK-zdt_sJv-103" style="edgeStyle=orthogonalEdgeStyle;rounded=0;orthogonalLoop=1;jettySize=auto;html=1;" edge="1" parent="1">
          <mxGeometry relative="1" as="geometry">
            <mxPoint x="-115" y="900" as="sourcePoint" />
            <mxPoint x="-5" y="900" as="targetPoint" />
          </mxGeometry>
        </mxCell>
        <mxCell id="FGWVI9_t93SK-zdt_sJv-104" value="pulsos (golpes)" style="text;html=1;align=center;verticalAlign=middle;whiteSpace=wrap;rounded=0;" vertex="1" parent="1">
          <mxGeometry x="-175" y="885" width="60" height="30" as="geometry" />
        </mxCell>
        <mxCell id="FGWVI9_t93SK-zdt_sJv-105" value="comunicación&lt;br&gt;(bluetooth)" style="text;html=1;align=center;verticalAlign=middle;whiteSpace=wrap;rounded=0;" vertex="1" parent="1">
          <mxGeometry x="-175" y="985" width="60" height="30" as="geometry" />
        </mxCell>
        <mxCell id="FGWVI9_t93SK-zdt_sJv-106" style="edgeStyle=orthogonalEdgeStyle;rounded=0;orthogonalLoop=1;jettySize=auto;html=1;entryX=0.003;entryY=0.583;entryDx=0;entryDy=0;entryPerimeter=0;" edge="1" parent="1">
          <mxGeometry relative="1" as="geometry">
            <mxPoint x="-101.68" y="999.64" as="sourcePoint" />
            <mxPoint x="-1.6342482922482304e-13" y="999.5" as="targetPoint" />
          </mxGeometry>
        </mxCell>
        <mxCell id="FGWVI9_t93SK-zdt_sJv-107" value="" style="endArrow=classic;html=1;rounded=0;" edge="1" parent="1">
          <mxGeometry width="50" height="50" relative="1" as="geometry">
            <mxPoint x="250" y="760" as="sourcePoint" />
            <mxPoint x="330" y="760" as="targetPoint" />
          </mxGeometry>
        </mxCell>
        <mxCell id="FGWVI9_t93SK-zdt_sJv-108" value="Pantalla&lt;div&gt;(Resultados)&lt;/div&gt;" style="text;html=1;align=center;verticalAlign=middle;whiteSpace=wrap;rounded=0;" vertex="1" parent="1">
          <mxGeometry x="340" y="740" width="60" height="30" as="geometry" />
        </mxCell>
        <mxCell id="FGWVI9_t93SK-zdt_sJv-109" value="" style="endArrow=classic;html=1;rounded=0;" edge="1" parent="1">
          <mxGeometry width="50" height="50" relative="1" as="geometry">
            <mxPoint x="250" y="855" as="sourcePoint" />
            <mxPoint x="330" y="855" as="targetPoint" />
          </mxGeometry>
        </mxCell>
        <mxCell id="FGWVI9_t93SK-zdt_sJv-110" value="Luces" style="text;html=1;align=center;verticalAlign=middle;whiteSpace=wrap;rounded=0;" vertex="1" parent="1">
          <mxGeometry x="330" y="835" width="60" height="30" as="geometry" />
        </mxCell>
        <mxCell id="FGWVI9_t93SK-zdt_sJv-111" value="" style="endArrow=classic;html=1;rounded=0;" edge="1" parent="1">
          <mxGeometry width="50" height="50" relative="1" as="geometry">
            <mxPoint x="250" y="960" as="sourcePoint" />
            <mxPoint x="330" y="960" as="targetPoint" />
          </mxGeometry>
        </mxCell>
        <mxCell id="FGWVI9_t93SK-zdt_sJv-112" value="Audio" style="text;html=1;align=center;verticalAlign=middle;whiteSpace=wrap;rounded=0;" vertex="1" parent="1">
          <mxGeometry x="330" y="940" width="60" height="30" as="geometry" />
        </mxCell>
        <mxCell id="FGWVI9_t93SK-zdt_sJv-113" value="Maquina de boxeo" style="text;html=1;align=center;verticalAlign=middle;whiteSpace=wrap;rounded=0;" vertex="1" parent="1">
          <mxGeometry x="55" y="795" width="140" height="110" as="geometry" />
        </mxCell>
      </root>
    </mxGraphModel>
  </diagram>
</mxfile>
